<svg width="366" height="366" viewBox="0 0 366 366" fill="none" xmlns="http://www.w3.org/2000/svg">
<g clip-path="url(#clip0_515_858)">
<path d="M0 130.133C0 84.5824 0 61.8069 8.8648 44.4088C16.6625 29.1049 29.1049 16.6625 44.4088 8.8648C61.8069 0 84.5824 0 130.133 0H235.867C281.418 0 304.193 0 321.591 8.8648C336.895 16.6625 349.337 29.1049 357.135 44.4088C366 61.8069 366 84.5824 366 130.133V235.867C366 281.418 366 304.193 357.135 321.591C349.337 336.895 336.895 349.337 321.591 357.135C304.193 366 281.418 366 235.867 366H130.133C84.5824 366 61.8069 366 44.4088 357.135C29.1049 349.337 16.6625 336.895 8.8648 321.591C0 304.193 0 281.418 0 235.867V130.133Z" fill="url(#paint0_linear_515_858)"/>
<path d="M190.327 100.319C230.656 48.6821 299.765 76.0939 319.841 100.533C321.344 102.363 322 104.696 322 107.065V285.508C322 288.778 322.085 292.721 319.249 294.351C319.191 294.384 319.132 294.417 319.073 294.448C313.845 297.204 308.271 291.913 303.42 288.537C263.299 260.618 223.212 276.581 207 290.432C200.233 297.199 195.075 296.006 191.746 292.832C188.371 289.615 188 284.547 188 279.885V107.283C188 104.779 188.786 102.292 190.327 100.319Z" fill="white"/>
<path d="M47.0928 100.072C94.9589 50.1989 164.467 73.8912 177.203 101.497C177.787 102.762 178 104.145 178 105.538V282.255C178 285.361 177.738 289.813 174.935 291.152C169.87 293.57 165.381 288.508 160.767 285.313C120.432 257.384 79.2602 276.54 63 290.432C56.2328 297.199 51.0745 296.007 47.7456 292.832C44.3715 289.615 44 284.547 44 279.885V107.972C44 105.046 45.0674 102.182 47.0928 100.072Z" fill="white"/>
</g>
<defs>
<linearGradient id="paint0_linear_515_858" x1="183" y1="0" x2="183" y2="366" gradientUnits="userSpaceOnUse">
<stop stop-color="#F29A08"/>
<stop offset="1" stop-color="#FA701A"/>
</linearGradient>
<clipPath id="clip0_515_858">
<rect width="366" height="366" fill="white"/>
</clipPath>
</defs>
</svg>
